<svg width="62" height="75" viewBox="0 0 62 75" fill="none" xmlns="http://www.w3.org/2000/svg">
<g filter="url(#filter0_d_2563_1673)">
<path d="M13.7577 9.25766C18.3975 4.61781 24.6883 2.00774 31.25 2C37.8118 2.00774 44.1025 4.61781 48.7424 9.25766C53.3822 13.8975 55.9923 20.1883 56 26.75C56.0077 32.1098 54.257 37.3241 51.0163 41.5933L51.014 41.6C51.014 41.6 50.3368 42.4865 50.2378 42.6058L31.25 65L12.2713 42.617C12.161 42.4888 11.486 41.6 11.486 41.6C8.24373 37.329 6.49217 32.1123 6.50003 26.75C6.50777 20.1883 9.11783 13.8975 13.7577 9.25766Z" fill="#B1ECFF"/>
</g>
<path d="M45.2628 25.6078C44.7007 22.4867 43.1227 19.6389 40.7742 17.5077C38.4258 15.3764 35.4387 14.0813 32.2778 13.8238V12.7778C32.2778 12.2255 31.8301 11.7778 31.2778 11.7778C30.7255 11.7778 30.2778 12.2255 30.2778 12.7778V13.8238C27.1169 14.0813 24.1298 15.3764 21.7813 17.5077C19.4329 19.6389 17.8548 22.4867 17.2928 25.6078C17.2604 25.796 17.2826 25.9895 17.3567 26.1655C17.4308 26.3414 17.5537 26.4925 17.711 26.6008C17.8682 26.7091 18.0532 26.7702 18.244 26.7768C18.4348 26.7833 18.6235 26.7351 18.7878 26.6378C19.5227 26.1272 20.3844 25.8295 21.2778 25.7778C22.1269 25.7984 22.9559 26.0409 23.6822 26.4813C24.4085 26.9216 25.0069 27.5445 25.4178 28.2878C25.5132 28.4281 25.6414 28.5429 25.7913 28.6222C25.9412 28.7015 26.1082 28.743 26.2778 28.743C26.4474 28.743 26.6144 28.7015 26.7643 28.6222C26.9142 28.5429 27.0424 28.4281 27.1378 28.2878C27.4732 27.6991 27.9243 27.1844 28.464 26.7747C29.0036 26.365 29.6206 26.0687 30.2778 25.9038V35.2778C30.2778 35.9409 30.0144 36.5768 29.5456 37.0456C29.0767 37.5144 28.4408 37.7778 27.7778 37.7778C27.1148 37.7778 26.4789 37.5144 26.01 37.0456C25.6808 36.7164 25.4528 36.3047 25.3463 35.8591C25.3407 35.8355 25.3354 35.8114 25.3306 35.7868C25.2239 35.2481 24.8144 34.7778 24.2653 34.7778C23.7256 34.7778 23.2934 35.2254 23.3122 35.7648L23.3155 35.8591C23.443 36.8381 23.8901 37.7541 24.5958 38.4598C25.4397 39.3037 26.5843 39.7778 27.7778 39.7778C28.9713 39.7778 30.1159 39.3037 30.9598 38.4598C31.8037 37.6159 32.2778 36.4713 32.2778 35.2778V25.9028C32.9351 26.068 33.5523 26.3645 34.0919 26.7746C34.6316 27.1846 35.0826 27.6997 35.4178 28.2888C35.5063 28.4381 35.6322 28.5617 35.783 28.6475C35.9338 28.7334 36.1043 28.7785 36.2778 28.7785C36.4513 28.7785 36.6218 28.7334 36.7726 28.6475C36.9234 28.5617 37.0492 28.4381 37.1378 28.2888C37.5486 27.5453 38.1469 26.9222 38.8732 26.4817C39.5995 26.0412 40.4286 25.7985 41.2778 25.7778C42.1712 25.8295 43.0329 26.1272 43.7678 26.6378C43.9321 26.7354 44.1209 26.7839 44.3119 26.7774C44.5029 26.771 44.6881 26.71 44.8455 26.6017C45.0029 26.4933 45.1259 26.3421 45.2001 26.166C45.2742 25.9898 45.2953 25.7961 45.2628 25.6078ZM21.2778 23.7778C20.7693 23.7778 20.2633 23.8495 19.7748 23.9908C20.4536 22.1 21.5803 20.4016 23.0584 19.041C24.5366 17.6804 26.3223 16.698 28.2628 16.1778C26.2806 18.7334 25.2085 21.8777 25.2168 25.1118C24.0838 24.2507 22.7009 23.7824 21.2778 23.7778ZM31.2778 23.7778C29.8034 23.7846 28.3744 24.2885 27.2218 25.2078C27.2588 22.9878 27.8298 18.7178 31.2778 16.0318C34.7078 18.7088 35.2868 22.9818 35.3298 25.2048C34.1778 24.2874 32.7504 23.7847 31.2778 23.7778ZM41.2778 23.7778C39.8548 23.7821 38.4719 24.25 37.3388 25.1108C37.3471 21.8767 36.275 18.7324 34.2928 16.1768C36.2334 16.6971 38.0192 17.6797 39.4973 19.0404C40.9755 20.4012 42.1021 22.0998 42.7808 23.9908C42.2923 23.8495 41.7863 23.7778 41.2778 23.7778Z" fill="#292D32"/>
<defs>
<filter id="filter0_d_2563_1673" x="0.5" y="0" width="61.5001" height="75" filterUnits="userSpaceOnUse" color-interpolation-filters="sRGB">
<feFlood flood-opacity="0" result="BackgroundImageFix"/>
<feColorMatrix in="SourceAlpha" type="matrix" values="0 0 0 0 0 0 0 0 0 0 0 0 0 0 0 0 0 0 127 0" result="hardAlpha"/>
<feOffset dy="4"/>
<feGaussianBlur stdDeviation="3"/>
<feComposite in2="hardAlpha" operator="out"/>
<feColorMatrix type="matrix" values="0 0 0 0 0.388235 0 0 0 0 0.388235 0 0 0 0 0.388235 0 0 0 0.45 0"/>
<feBlend mode="normal" in2="BackgroundImageFix" result="effect1_dropShadow_2563_1673"/>
<feBlend mode="normal" in="SourceGraphic" in2="effect1_dropShadow_2563_1673" result="shape"/>
</filter>
</defs>
</svg>
