<svg width="57" height="56" viewBox="0 0 57 56" fill="none" xmlns="http://www.w3.org/2000/svg">
<circle cx="28.0166" cy="28" r="28" fill="#B1ECFF"/>
<path fill-rule="evenodd" clip-rule="evenodd" d="M21.1824 14.1658C24.4047 10.9447 26.0147 9.3335 28.0167 9.3335C30.0187 9.3335 31.6287 10.9435 34.851 14.1658C38.0722 17.3882 39.6834 18.9982 39.6834 21.0002C39.6834 23.0022 38.0734 24.6122 34.851 27.8345C31.6287 31.0557 30.0187 32.6668 28.0167 32.6668C26.0147 32.6668 24.4047 31.0568 21.1824 27.8345C17.9612 24.6122 16.35 23.0022 16.35 21.0002C16.35 18.9982 17.96 17.3882 21.1824 14.1658ZM30.1704 16.8608C30.0865 16.7822 29.9879 16.7209 29.8804 16.6804C29.7728 16.6399 29.6583 16.621 29.5434 16.6247C29.4285 16.6284 29.3155 16.6548 29.2108 16.7022C29.1061 16.7496 29.0117 16.8172 28.9331 16.9011C28.8545 16.985 28.7932 17.0835 28.7527 17.1911C28.7122 17.2987 28.6933 17.4132 28.697 17.528C28.7007 17.6429 28.7271 17.756 28.7745 17.8607C28.8219 17.9654 28.8895 18.0597 28.9734 18.1383L30.4702 19.5418H26.4615C25.814 19.5418 24.8539 19.7168 24.0267 20.2745C23.154 20.8637 22.475 21.8577 22.475 23.3335C22.475 23.5656 22.5672 23.7881 22.7313 23.9522C22.8954 24.1163 23.118 24.2085 23.35 24.2085C23.5821 24.2085 23.8046 24.1163 23.9687 23.9522C24.1328 23.7881 24.225 23.5656 24.225 23.3335C24.225 22.476 24.5832 22.0117 25.0067 21.7258C25.4417 21.4484 25.9456 21.2981 26.4615 21.2918H30.4702L28.9734 22.6953C28.808 22.855 28.7122 23.0733 28.7065 23.3031C28.7008 23.5328 28.7858 23.7556 28.943 23.9232C29.1002 24.0909 29.3171 24.1899 29.5468 24.199C29.7764 24.2081 30.0004 24.1264 30.1704 23.9717L33.2819 21.055C33.3691 20.9732 33.4386 20.8743 33.4862 20.7645C33.5337 20.6548 33.5582 20.5364 33.5582 20.4168C33.5582 20.2972 33.5337 20.1789 33.4862 20.0691C33.4386 19.9593 33.3691 19.8605 33.2819 19.7787L30.1704 16.862V16.8608Z" fill="black"/>
<path d="M22.6632 37.041V41.5137H21.5694V37.041H22.6632ZM19.9971 37.4023C19.9874 39.7656 18.5616 41.1133 15.8272 41.6895L15.4464 40.8105C17.6387 40.3809 18.6641 39.4629 18.796 38.2812H15.9151V37.4023H19.9971ZM22.6632 41.875V44.1797H17.9171V44.9316H22.9268V45.7812H16.8233V43.3887H21.5694V42.7246H16.8038V41.875H22.6632ZM27.1261 38.8477C27.1261 39.7949 27.8389 40.7227 29.2257 41.0938L28.7374 41.9238C27.712 41.6553 26.9893 41.0693 26.5987 40.3125C26.2032 41.1426 25.461 41.7871 24.421 42.0898L23.9034 41.2305C25.2999 40.8594 26.0421 39.8828 26.0421 38.8477V38.8184H24.1964V37.959H26.0421V37.002H27.1358V37.959H28.9718V38.8184H27.1261V38.8477ZM30.9151 37.041V39.0918H32.1456V39.9902H30.9151V42.0996H29.8311V37.041H30.9151ZM31.0421 42.5098V43.3789H28.7081C28.9132 44.1113 29.9044 44.7949 31.4132 45.0098L31.0225 45.8398C29.6407 45.6445 28.5958 45.0537 28.0831 44.248C27.5753 45.0488 26.5401 45.625 25.1729 45.8203L24.7725 45C26.2862 44.79 27.2677 44.1309 27.4776 43.3789H25.1339V42.5098H31.0421ZM39.9678 37.041V45.8691H38.8741V37.041H39.9678ZM37.3311 37.9785C37.3311 40.6055 36.3155 42.8418 33.2198 44.3066L32.6534 43.4375C34.963 42.3389 36.0372 40.8447 36.2276 38.8379H33.1026V37.9785H37.3311Z" fill="black"/>
</svg>
